<svg width="112" height="39" viewBox="0 0 112 39" fill="none" xmlns="http://www.w3.org/2000/svg">
<path d="M62.0608 27.2104C60.9572 27.2104 60.0078 26.9766 59.2128 26.509C58.4225 26.0366 57.8145 25.3819 57.3889 24.5448C56.9681 23.7077 56.7576 22.7443 56.7576 21.6547C56.7576 20.551 56.9704 19.583 57.396 18.7505C57.8262 17.9134 58.4365 17.261 59.2268 16.7934C60.0172 16.321 60.9572 16.0849 62.0468 16.0849C62.9868 16.0849 63.8099 16.2556 64.516 16.597C65.2222 16.9384 65.7811 17.4177 66.1926 18.035C66.6041 18.6523 66.8309 19.3772 66.873 20.2096H64.0531C63.9736 19.6718 63.7631 19.2392 63.4217 18.9119C63.085 18.5798 62.6431 18.4138 62.0959 18.4138C61.6329 18.4138 61.2284 18.5401 60.8823 18.7926C60.541 19.0405 60.2744 19.4029 60.0826 19.8799C59.8909 20.3569 59.795 20.9345 59.795 21.6126C59.795 22.3 59.8886 22.8846 60.0756 23.3663C60.2674 23.848 60.5363 24.2151 60.8823 24.4676C61.2284 24.7202 61.6329 24.8464 62.0959 24.8464C62.4373 24.8464 62.7436 24.7763 63.0149 24.636C63.2908 24.4957 63.5176 24.2923 63.6953 24.0257C63.8777 23.7545 63.9969 23.4294 64.0531 23.0506H66.873C66.8263 23.8737 66.6018 24.5986 66.1996 25.2252C65.8021 25.8472 65.2526 26.3336 64.5511 26.6843C63.8496 27.0351 63.0195 27.2104 62.0608 27.2104ZM71.8588 27.2034C71.1714 27.2034 70.5588 27.0842 70.021 26.8457C69.4831 26.6025 69.0576 26.2447 68.7442 25.7724C68.4356 25.2954 68.2813 24.7015 68.2813 23.9906C68.2813 23.392 68.3912 22.8893 68.611 22.4824C68.8308 22.0756 69.1301 21.7482 69.5089 21.5003C69.8877 21.2525 70.3179 21.0654 70.7996 20.9392C71.286 20.8129 71.7957 20.724 72.3288 20.6726C72.9555 20.6071 73.4606 20.5463 73.844 20.4902C74.2275 20.4294 74.5058 20.3406 74.6788 20.2236C74.8519 20.1067 74.9384 19.9337 74.9384 19.7045V19.6625C74.9384 19.2182 74.7981 18.8745 74.5175 18.6313C74.2416 18.3881 73.8487 18.2665 73.339 18.2665C72.8012 18.2665 72.3733 18.3858 72.0553 18.6243C71.7373 18.8581 71.5268 19.1527 71.4239 19.5081L68.6601 19.2837C68.8004 18.6289 69.0763 18.0631 69.4878 17.5861C69.8994 17.1044 70.4302 16.7349 71.0802 16.4777C71.7349 16.2158 72.4925 16.0849 73.353 16.0849C73.9516 16.0849 74.5245 16.155 75.0717 16.2953C75.6235 16.4356 76.1122 16.6531 76.5378 16.9477C76.968 17.2423 77.3071 17.6211 77.5549 18.0841C77.8028 18.5424 77.9267 19.0919 77.9267 19.7326V27H75.0927V25.5058H75.0085C74.8355 25.8425 74.604 26.1395 74.314 26.3967C74.0241 26.6493 73.6757 26.848 73.2688 26.993C72.862 27.1333 72.392 27.2034 71.8588 27.2034ZM72.7147 25.1411C73.1543 25.1411 73.5424 25.0545 73.8791 24.8815C74.2158 24.7038 74.4801 24.4653 74.6718 24.166C74.8635 23.8667 74.9594 23.5276 74.9594 23.1488V22.0054C74.8659 22.0662 74.7373 22.1223 74.5736 22.1738C74.4146 22.2205 74.2345 22.265 74.0335 22.3071C73.8324 22.3445 73.6313 22.3795 73.4302 22.4123C73.2291 22.4403 73.0467 22.4661 72.883 22.4894C72.5323 22.5409 72.226 22.6227 71.9641 22.735C71.7022 22.8472 71.4987 22.9992 71.3538 23.1909C71.2088 23.378 71.1363 23.6118 71.1363 23.8924C71.1363 24.2993 71.2836 24.6103 71.5782 24.8254C71.8776 25.0358 72.2564 25.1411 72.7147 25.1411ZM83.2334 20.7708V27H80.2451V16.2252H83.0931V18.1262H83.2194C83.4579 17.4995 83.8578 17.0038 84.4189 16.6391C84.9801 16.2696 85.6606 16.0849 86.4603 16.0849C87.2085 16.0849 87.8609 16.2486 88.4174 16.5759C88.9739 16.9033 89.4065 17.3709 89.7152 17.9789C90.0238 18.5822 90.1781 19.3024 90.1781 20.1395V27H87.1898V20.6726C87.1945 20.0132 87.0261 19.4988 86.6847 19.1293C86.3434 18.7552 85.8734 18.5681 85.2748 18.5681C84.8726 18.5681 84.5172 18.6547 84.2085 18.8277C83.9045 19.0007 83.666 19.2533 83.493 19.5853C83.3246 19.9127 83.2381 20.3078 83.2334 20.7708ZM98.2645 16.2252V18.4699H91.7758V16.2252H98.2645ZM93.2489 13.6437H96.2372V23.689C96.2372 23.9649 96.2793 24.18 96.3635 24.3344C96.4477 24.484 96.5646 24.5892 96.7142 24.65C96.8686 24.7108 97.0463 24.7412 97.2474 24.7412C97.3877 24.7412 97.528 24.7295 97.6683 24.7061C97.8086 24.6781 97.9161 24.657 97.9909 24.643L98.4609 26.8667C98.3113 26.9135 98.1008 26.9673 97.8296 27.0281C97.5584 27.0935 97.2287 27.1333 96.8405 27.1473C96.1203 27.1754 95.489 27.0795 94.9465 26.8597C94.4087 26.6399 93.9901 26.2985 93.6908 25.8355C93.3915 25.3726 93.2442 24.788 93.2489 24.0818V13.6437ZM104.964 27.2104C103.874 27.2104 102.932 26.979 102.137 26.516C101.346 26.0483 100.736 25.3983 100.306 24.5658C99.8756 23.7287 99.6605 22.7583 99.6605 21.6547C99.6605 20.5417 99.8756 19.5689 100.306 18.7365C100.736 17.8994 101.346 17.2493 102.137 16.7864C102.932 16.3187 103.874 16.0849 104.964 16.0849C106.053 16.0849 106.993 16.3187 107.784 16.7864C108.579 17.2493 109.191 17.8994 109.622 18.7365C110.052 19.5689 110.267 20.5417 110.267 21.6547C110.267 22.7583 110.052 23.7287 109.622 24.5658C109.191 25.3983 108.579 26.0483 107.784 26.516C106.993 26.979 106.053 27.2104 104.964 27.2104ZM104.978 24.8955C105.473 24.8955 105.887 24.7552 106.219 24.4747C106.551 24.1894 106.802 23.8012 106.97 23.3102C107.143 22.8191 107.23 22.2603 107.23 21.6336C107.23 21.007 107.143 20.4481 106.97 19.9571C106.802 19.466 106.551 19.0779 106.219 18.7926C105.887 18.5073 105.473 18.3647 104.978 18.3647C104.477 18.3647 104.056 18.5073 103.715 18.7926C103.378 19.0779 103.123 19.466 102.95 19.9571C102.782 20.4481 102.698 21.007 102.698 21.6336C102.698 22.2603 102.782 22.8191 102.95 23.3102C103.123 23.8012 103.378 24.1894 103.715 24.4747C104.056 24.7552 104.477 24.8955 104.978 24.8955Z" fill="white"/>
<g clip-path="url(#clip0_158_177)">
<mask id="mask0_158_177" style="mask-type:luminance" maskUnits="userSpaceOnUse" x="0" y="0" width="37" height="39">
<path d="M36.5 0H0V39H36.5V0Z" fill="white"/>
</mask>
<g mask="url(#mask0_158_177)">
<path fill-rule="evenodd" clip-rule="evenodd" d="M6.2931 0V6.72414H0V32.2759H6.2931V39H36.5V0H6.2931ZM29.7407 6.72443H13.5185V13.4467H6.75924V25.5502H13.5185V32.2742H29.7407V25.55L13.5185 25.5502V13.4486H29.7407V6.72443Z" fill="white"/>
</g>
</g>
<defs>
<clipPath id="clip0_158_177">
<rect width="37" height="39" fill="white"/>
</clipPath>
</defs>
</svg>
